<svg width="131" height="95" viewBox="0 0 131 95" fill="none" xmlns="http://www.w3.org/2000/svg">
<path d="M24.7273 94.3182C19.2424 94.3182 14.5606 92.9091 10.6818 90.0909C6.80302 87.2727 4.04545 83.1818 2.40908 77.8182C0.803023 72.4545 0.621205 65.9394 1.86363 58.2727C3.16666 50.5152 5.54545 43.9697 8.99999 38.6364C12.4545 33.2727 16.5758 29.2273 21.3636 26.5C26.1818 23.7424 31.2727 22.3636 36.6364 22.3636C40.7576 22.3636 44.0151 23.0606 46.4091 24.4545C48.8333 25.8182 50.6515 27.4697 51.8636 29.4091C53.0758 31.3182 53.9697 33.1212 54.5454 34.8182H55.2273L61 0H77.5L62.0454 93.0909H45.8636L47.7273 82.0909H46.7273C45.5758 83.7879 44.0454 85.5909 42.1364 87.5C40.2273 89.3788 37.8485 90.9849 35 92.3182C32.1515 93.6515 28.7273 94.3182 24.7273 94.3182ZM31.2727 80.8182C34.7879 80.8182 37.9394 79.8788 40.7273 78C43.5454 76.0909 45.8939 73.4394 47.7727 70.0455C49.6515 66.6515 50.9697 62.697 51.7273 58.1818C52.4848 53.6667 52.4848 49.7424 51.7273 46.4091C50.9697 43.0758 49.5 40.4848 47.3182 38.6364C45.1364 36.7879 42.2727 35.8636 38.7273 35.8636C35.0909 35.8636 31.8939 36.8182 29.1364 38.7273C26.4091 40.6364 24.1667 43.2727 22.4091 46.6364C20.6515 50 19.4091 53.8485 18.6818 58.1818C17.9545 62.5455 17.9091 66.4394 18.5454 69.8636C19.2121 73.2576 20.5909 75.9394 22.6818 77.9091C24.803 79.8485 27.6667 80.8182 31.2727 80.8182Z" fill="#C07840"/>
<path d="M130.541 41.7273L115.405 43.3636C115.253 41.8182 114.783 40.3788 113.995 39.0455C113.208 37.7121 112.026 36.6515 110.45 35.8636C108.905 35.0455 106.905 34.6364 104.45 34.6364C100.874 34.6364 97.7379 35.4394 95.0409 37.0455C92.3439 38.6515 90.8136 40.7121 90.45 43.2273C90.1167 45.1061 90.5712 46.6364 91.8136 47.8182C93.0561 49 95.3591 50 98.7227 50.8182L110.268 53.3636C116.632 54.7879 121.208 57.0909 123.995 60.2727C126.814 63.4545 127.798 67.6212 126.95 72.7727C126.223 77.0758 124.344 80.8636 121.314 84.1364C118.283 87.3788 114.405 89.9091 109.677 91.7273C104.98 93.5455 99.7682 94.4545 94.0409 94.4545C85.3439 94.4545 78.647 92.6515 73.95 89.0455C69.2833 85.4091 66.9651 80.4091 66.9954 74.0455L83.1773 72.5C83.3591 75.6515 84.4651 78.0303 86.4954 79.6364C88.5257 81.2121 91.3439 82.0152 94.95 82.0455C99.0106 82.0758 102.435 81.2273 105.223 79.5C108.041 77.7424 109.632 75.6061 109.995 73.0909C110.298 71.2121 109.829 69.6818 108.586 68.5C107.374 67.3182 105.208 66.3788 102.086 65.6818L90.6318 63.1818C84.147 61.7576 79.5257 59.3485 76.7682 55.9545C74.0409 52.5303 73.1167 48.2121 73.9954 43C74.7227 38.7576 76.4954 35.1061 79.3136 32.0455C82.1621 28.9545 85.8136 26.5758 90.2682 24.9091C94.7227 23.2121 99.7076 22.3636 105.223 22.3636C113.526 22.3636 119.783 24.1061 123.995 27.5909C128.208 31.0758 130.389 35.7879 130.541 41.7273Z" fill="white"/>
</svg>
