<svg xmlns="http://www.w3.org/2000/svg" width="145" height="51" fill="none" viewBox="0 0 145 51">
  <path fill="#fff" d="m10.22 21-.995-1.523a4.6 4.6 0 0 1-1.538 1.333 4.29 4.29 0 0 1-2.022.483h-.454a4.397 4.397 0 0 1-1.714-.337 4.53 4.53 0 0 1-1.406-.952c-.4-.4-.718-.87-.952-1.406a4.398 4.398 0 0 1-.337-1.714v-6.768c0-.605.112-1.177.337-1.714a4.53 4.53 0 0 1 .952-1.406c.4-.4.869-.713 1.406-.937a4.239 4.239 0 0 1 1.714-.352h.454A4.317 4.317 0 0 1 9.02 7.26V-.006h1.801V21h-.6Zm-1.2-10.986c0-.362-.069-.699-.206-1.011a2.606 2.606 0 0 0-.556-.835 2.606 2.606 0 0 0-.835-.557 2.494 2.494 0 0 0-1.01-.205H5.21a2.61 2.61 0 0 0-1.025.205 2.606 2.606 0 0 0-1.377 1.392c-.137.312-.205.65-.205 1.01v6.973c0 .362.068.703.205 1.026a2.65 2.65 0 0 0 1.377 1.377 2.61 2.61 0 0 0 1.025.205h1.201c.361 0 .698-.069 1.01-.205a2.605 2.605 0 0 0 1.392-1.377c.137-.323.206-.664.206-1.026v-6.972Zm15.424 6.87a4.24 4.24 0 0 1-.351 1.714 4.328 4.328 0 0 1-.938 1.406c-.4.4-.869.718-1.406.952a4.397 4.397 0 0 1-1.714.337h-1.201a4.397 4.397 0 0 1-1.714-.337 4.53 4.53 0 0 1-1.406-.952c-.4-.4-.718-.87-.952-1.406a4.398 4.398 0 0 1-.337-1.714v-6.768c0-.605.112-1.177.337-1.714a4.53 4.53 0 0 1 .952-1.406c.4-.4.869-.713 1.406-.937a4.239 4.239 0 0 1 1.714-.352h1.201c.606 0 1.177.117 1.714.352a4.329 4.329 0 0 1 1.406.937c.4.4.713.87.938 1.406a4.24 4.24 0 0 1 .351 1.714v3.53h-8.217v3.34c0 .362.068.703.205 1.026a2.651 2.651 0 0 0 1.377 1.377 2.61 2.61 0 0 0 1.025.205h1.201c.361 0 .698-.069 1.01-.205a2.605 2.605 0 0 0 1.392-1.377c.137-.323.206-.664.206-1.026v-.996l1.801.293v.6Zm-1.801-6.87c0-.362-.069-.699-.206-1.011a2.606 2.606 0 0 0-.556-.835 2.606 2.606 0 0 0-.835-.557 2.494 2.494 0 0 0-1.01-.205h-1.202a2.61 2.61 0 0 0-1.025.205 2.607 2.607 0 0 0-1.377 1.392c-.137.312-.205.65-.205 1.01v2.227h6.416v-2.226ZM32.75 21h-.894L26.54 6h1.802l3.911 11.367.058.777.06-.777L36.265 6h1.801L32.75 21ZM14.36 40.27c0 1.94-.68 3.43-2.04 4.47-1.34 1.04-3.12 1.56-5.34 1.56-1.32 0-2.6-.16-3.84-.48-1.22-.32-2.19-.78-2.91-1.38l.54-4.47 2.67.27-.06 2.4c.66.34 1.26.56 1.8.66.56.08 1.08.12 1.56.12 1.16 0 2.12-.18 2.88-.54.78-.38 1.17-1.13 1.17-2.25 0-1.22-.44-2.03-1.32-2.43-.88-.42-1.89-.74-3.03-.96-.92-.18-1.85-.42-2.79-.72s-1.72-.8-2.34-1.5c-.62-.7-.93-1.73-.93-3.09 0-2.04.69-3.5 2.07-4.38 1.4-.9 2.96-1.35 4.68-1.35 1.2 0 2.36.18 3.48.54 1.14.36 2.03.83 2.67 1.41l.18 4.11-2.67.24-.27-2.52c-.56-.32-1.12-.54-1.68-.66-.56-.12-1.1-.18-1.62-.18-.94 0-1.72.19-2.34.57-.62.38-.93.99-.93 1.83 0 .98.38 1.65 1.14 2.01.78.34 1.65.62 2.61.84.82.18 1.75.42 2.79.72s1.94.84 2.7 1.62c.78.76 1.17 1.94 1.17 3.54Zm21.715-10.92h-1.8v8.61c0 1.38-.26 2.71-.78 3.99-.5 1.26-1.35 2.3-2.55 3.12-1.18.82-2.79 1.23-4.83 1.23-2.94 0-4.99-.81-6.15-2.43-1.16-1.62-1.74-3.48-1.74-5.58v-8.94h-1.86V26.5h7.62v2.85h-2.43v8.85c0 1.54.37 2.79 1.11 3.75.74.94 1.95 1.41 3.63 1.41 1.64 0 2.86-.47 3.66-1.41.8-.96 1.2-2.29 1.2-3.99v-8.61h-2.49V26.5h7.41v2.85ZM53.078 46h-15.24l-.09-1.77 10.53-14.82v-.06h-6.48l-.69 3.39-2.82-.27.66-5.97h14.13l.06 1.59-10.62 15v.06h7.71l.69-3.81 2.85.3-.69 6.36Zm21.69 0h-7.47v-2.85h1.98l-.99-2.67h-7.29l-1.05 2.67h2.19V46h-7.38v-2.85h1.8l5.88-13.8h-2.85V26.5h6.27l7.02 16.65h1.89V46Zm-7.38-7.95-2.55-6.78h-.18l-2.7 6.78h5.43ZM93.244 46h-4.56l-4.02-7.71h-3.21v4.86h2.28V46h-7.86v-2.85h2.25v-13.8h-2.25V26.5h8.67c2.42 0 4.23.51 5.43 1.53 1.2 1 1.8 2.41 1.8 4.23 0 1.3-.35 2.42-1.05 3.36-.68.92-1.63 1.58-2.85 1.98l2.97 5.55h2.4V46Zm-5.01-13.65c0-1.1-.32-1.87-.96-2.31-.64-.46-1.73-.69-3.27-.69h-2.55v6.27h2.52c1.6 0 2.71-.28 3.33-.84.62-.58.93-1.39.93-2.43Zm23.642.51-2.88.24-.6-3.75h-3.81v13.8h3.27V46h-9.75v-2.85h3.15v-13.8h-3.84l-.6 3.75-2.85-.24.6-6.36h16.71l.6 6.36ZM128.546 46h-14.85v-2.85h2.25v-13.8h-2.25V26.5h14.64l.6 5.64-2.85.24-.6-3.03h-6.21v5.4h8.58v2.85h-8.58v5.55h6.42l.6-3.03 2.85.24-.6 5.64Zm2.905 2.1h12.96v2.16h-12.96V48.1Z"/>
</svg>
