<svg xmlns="http://www.w3.org/2000/svg" width="30" height="30" fill="none" viewBox="0 0 30 30">
  <path fill="#F2F2F2" fill-rule="evenodd" d="M15 0c8.285 0 15 6.885 15 15.38 0 6.793-4.293 12.556-10.25 14.591-.76.152-1.03-.328-1.03-.738 0-.507.018-2.163.018-4.22 0-1.435-.48-2.37-1.018-2.848 3.34-.38 6.85-1.681 6.85-7.588 0-1.68-.582-3.051-1.545-4.128.156-.389.67-1.953-.147-4.071 0 0-1.257-.412-4.12 1.577A14.094 14.094 0 0 0 15 7.437a14.063 14.063 0 0 0-3.755.518C8.38 5.965 7.12 6.378 7.12 6.378c-.814 2.118-.3 3.682-.146 4.07-.958 1.078-1.545 2.449-1.545 4.129 0 5.892 3.503 7.212 6.834 7.6-.428.385-.817 1.062-.952 2.057-.855.393-3.027 1.073-4.365-1.278 0 0-.793-1.477-2.3-1.585 0 0-1.462-.02-.101.934 0 0 .982.473 1.665 2.25 0 0 .88 2.745 5.053 1.815.008 1.286.021 2.497.021 2.863 0 .407-.276.882-1.024.74C4.296 27.94 0 22.174 0 15.379 0 6.885 6.717 0 15 0Z" clip-rule="evenodd"/>
</svg>
