<svg xmlns="http://www.w3.org/2000/svg" width="30" height="30" fill="none" viewBox="0 0 30 30">
  <path fill="#F2F2F2" d="M27.598.003H2.567A2.456 2.456 0 0 0 0 2.346v25.085A2.643 2.643 0 0 0 2.569 30h25.029a2.513 2.513 0 0 0 2.4-2.569V2.346a2.306 2.306 0 0 0-2.4-2.343ZM9.373 25.013H5.006V11.645h4.368v13.368ZM7.294 9.621a2.212 2.212 0 0 1-2.288-2.306A2.212 2.212 0 0 1 7.33 5.008a2.212 2.212 0 0 1 2.287 2.307A2.212 2.212 0 0 1 7.293 9.62ZM25.01 25.013h-4.387v-7.312c0-1.744-.619-2.943-2.175-2.943a2.343 2.343 0 0 0-2.193 1.575 2.682 2.682 0 0 0-.15 1.068v7.612h-4.312V11.645h4.312v1.875a4.35 4.35 0 0 1 3.937-2.268c2.83 0 4.968 1.874 4.968 5.868v7.893Z"/>
</svg>
