<svg width="578" height="95" viewBox="0 0 578 95" fill="none" xmlns="http://www.w3.org/2000/svg">
<path d="M24.7273 94.3182C19.2424 94.3182 14.5606 92.9091 10.6818 90.0909C6.80302 87.2727 4.04545 83.1818 2.40908 77.8182C0.803023 72.4545 0.621205 65.9394 1.86363 58.2727C3.16666 50.5151 5.54545 43.9697 8.99999 38.6363C12.4545 33.2727 16.5758 29.2272 21.3636 26.5C26.1818 23.7424 31.2727 22.3636 36.6364 22.3636C40.7576 22.3636 44.0151 23.0606 46.4091 24.4545C48.8333 25.8182 50.6515 27.4697 51.8636 29.4091C53.0758 31.3182 53.9697 33.1212 54.5454 34.8182H55.2273L61 -3.05176e-05H77.5L62.0454 93.0909H45.8636L47.7273 82.0909H46.7273C45.5758 83.7879 44.0454 85.5909 42.1364 87.5C40.2273 89.3788 37.8485 90.9848 35 92.3182C32.1515 93.6515 28.7273 94.3182 24.7273 94.3182ZM31.2727 80.8182C34.7879 80.8182 37.9394 79.8788 40.7273 78C43.5454 76.0909 45.8939 73.4394 47.7727 70.0454C49.6515 66.6515 50.9697 62.6969 51.7273 58.1818C52.4848 53.6666 52.4848 49.7424 51.7273 46.4091C50.9697 43.0757 49.5 40.4848 47.3182 38.6363C45.1364 36.7878 42.2727 35.8636 38.7273 35.8636C35.0909 35.8636 31.8939 36.8182 29.1364 38.7272C26.4091 40.6363 24.1667 43.2727 22.4091 46.6363C20.6515 50 19.4091 53.8485 18.6818 58.1818C17.9545 62.5454 17.9091 66.4394 18.5454 69.8636C19.2121 73.2575 20.5909 75.9394 22.6818 77.9091C24.803 79.8485 27.6667 80.8182 31.2727 80.8182ZM97.5864 94.4545C90.5864 94.4545 84.7985 93 80.2227 90.0909C75.647 87.1515 72.4348 83 70.5864 77.6363C68.7682 72.2424 68.4651 65.8939 69.6773 58.5909C70.8591 51.4091 73.2682 45.106 76.9045 39.6818C80.5409 34.2272 85.0864 29.9848 90.5409 26.9545C96.0257 23.8939 102.086 22.3636 108.723 22.3636C113.026 22.3636 116.98 23.0606 120.586 24.4545C124.192 25.8182 127.238 27.9394 129.723 30.8182C132.208 33.6969 133.92 37.3636 134.859 41.8182C135.798 46.2424 135.753 51.5151 134.723 57.6363L133.95 62.6818H76.6773L78.45 51.5909H119.905C120.45 48.4394 120.268 45.6363 119.359 43.1818C118.45 40.6969 116.935 38.7424 114.814 37.3182C112.692 35.8939 110.041 35.1818 106.859 35.1818C103.617 35.1818 100.586 36.0151 97.7682 37.6818C94.9803 39.3182 92.6318 41.4394 90.7227 44.0454C88.8136 46.6515 87.6015 49.3939 87.0864 52.2727L85.2227 62.9091C84.5561 67.2727 84.7076 70.8333 85.6773 73.5909C86.647 76.3485 88.3439 78.3788 90.7682 79.6818C93.1924 80.9848 96.253 81.6363 99.95 81.6363C102.374 81.6363 104.617 81.303 106.677 80.6363C108.738 79.9697 110.571 78.9697 112.177 77.6363C113.814 76.2727 115.177 74.606 116.268 72.6363L131.314 74.3636C129.647 78.4242 127.208 81.9697 123.995 85C120.783 88 116.935 90.3333 112.45 92C107.995 93.6363 103.041 94.4545 97.5864 94.4545ZM202.059 23.2727L165.559 93.0909H147.377L134.15 23.2727H151.059L158.514 75.1363H159.241L183.923 23.2727H202.059Z" fill="#C07840"/>
<path d="M252.691 41.7272L237.555 43.3636C237.403 41.8182 236.933 40.3788 236.145 39.0454C235.358 37.7121 234.176 36.6515 232.6 35.8636C231.055 35.0454 229.055 34.6363 226.6 34.6363C223.024 34.6363 219.888 35.4394 217.191 37.0454C214.494 38.6515 212.964 40.7121 212.6 43.2272C212.267 45.106 212.721 46.6363 213.964 47.8182C215.206 49 217.509 50 220.873 50.8182L232.418 53.3636C238.782 54.7878 243.358 57.0909 246.145 60.2727C248.964 63.4545 249.948 67.6212 249.1 72.7727C248.373 77.0757 246.494 80.8636 243.464 84.1363C240.433 87.3788 236.555 89.9091 231.827 91.7272C227.13 93.5454 221.918 94.4545 216.191 94.4545C207.494 94.4545 200.797 92.6515 196.1 89.0454C191.433 85.4091 189.115 80.4091 189.145 74.0454L205.327 72.5C205.509 75.6515 206.615 78.0303 208.645 79.6363C210.676 81.2121 213.494 82.0151 217.1 82.0454C221.161 82.0757 224.585 81.2272 227.373 79.5C230.191 77.7424 231.782 75.606 232.145 73.0909C232.448 71.2121 231.979 69.6818 230.736 68.5C229.524 67.3182 227.358 66.3788 224.236 65.6818L212.782 63.1818C206.297 61.7575 201.676 59.3485 198.918 55.9545C196.191 52.5303 195.267 48.2121 196.145 43C196.873 38.7575 198.645 35.106 201.464 32.0454C204.312 28.9545 207.964 26.5757 212.418 24.9091C216.873 23.2121 221.858 22.3636 227.373 22.3636C235.676 22.3636 241.933 24.106 246.145 27.5909C250.358 31.0757 252.539 35.7879 252.691 41.7272ZM295.823 63.7272L302.595 23.2727H319.05L307.414 93.0909H291.459L293.55 80.6818H292.823C290.641 84.5909 287.52 87.7879 283.459 90.2727C279.429 92.7575 274.792 94 269.55 94C264.974 94 261.111 92.9848 257.959 90.9545C254.808 88.8939 252.565 85.9091 251.232 82C249.929 78.0606 249.732 73.303 250.641 67.7272L258.095 23.2727H274.55L267.55 65.1818C266.853 69.606 267.489 73.1212 269.459 75.7272C271.459 78.3333 274.429 79.6363 278.368 79.6363C280.792 79.6363 283.232 79.0454 285.686 77.8636C288.171 76.6818 290.338 74.9242 292.186 72.5909C294.035 70.2272 295.247 67.2727 295.823 63.7272ZM310.67 93.0909L312.443 82.6363L355.852 37.5L356.034 36.9091H321.216L323.534 23.2727H378.443L376.625 34.5L335.034 78.8636L334.852 79.4545H370.307L368.08 93.0909H310.67ZM390.643 94.5C386.219 94.5 382.37 93.7121 379.098 92.1363C375.825 90.5303 373.416 88.1666 371.87 85.0454C370.355 81.9242 369.977 78.0757 370.734 73.5C371.401 69.5606 372.673 66.303 374.552 63.7272C376.461 61.1515 378.795 59.0909 381.552 57.5454C384.34 55.9697 387.37 54.7878 390.643 54C393.946 53.2121 397.31 52.6363 400.734 52.2727C404.916 51.8485 408.295 51.4545 410.87 51.0909C413.477 50.7272 415.431 50.1818 416.734 49.4545C418.037 48.6969 418.825 47.5454 419.098 46V45.7272C419.643 42.303 419.098 39.6515 417.461 37.7727C415.825 35.8939 413.098 34.9545 409.28 34.9545C405.28 34.9545 401.916 35.8333 399.189 37.5909C396.461 39.3485 394.477 41.4242 393.234 43.8182L378.325 41.6363C380.204 37.3939 382.78 33.8485 386.052 31C389.325 28.1212 393.098 25.9697 397.37 24.5454C401.673 23.0909 406.264 22.3636 411.143 22.3636C414.477 22.3636 417.734 22.7575 420.916 23.5454C424.128 24.3333 426.961 25.6363 429.416 27.4545C431.901 29.2424 433.719 31.6818 434.87 34.7727C436.052 37.8636 436.249 41.7272 435.461 46.3636L427.689 93.0909H411.87L413.507 83.5H412.961C411.658 85.4394 409.961 87.2575 407.87 88.9545C405.78 90.6212 403.295 91.9697 400.416 93C397.537 94 394.28 94.5 390.643 94.5ZM396.87 82.4091C400.173 82.4091 403.143 81.7575 405.78 80.4545C408.416 79.1212 410.583 77.3636 412.28 75.1818C413.977 73 415.037 70.6212 415.461 68.0454L416.825 59.8182C416.219 60.2424 415.28 60.6363 414.007 61C412.734 61.3636 411.31 61.6818 409.734 61.9545C408.189 62.2272 406.658 62.4697 405.143 62.6818C403.628 62.8939 402.325 63.0757 401.234 63.2272C398.719 63.5606 396.416 64.106 394.325 64.8636C392.264 65.6212 390.552 66.6818 389.189 68.0454C387.855 69.3788 387.022 71.106 386.689 73.2272C386.204 76.2272 386.916 78.5151 388.825 80.0909C390.734 81.6363 393.416 82.4091 396.87 82.4091ZM431.434 93.0909L443.07 23.2727H459.025L457.07 34.9091H457.798C459.707 30.8788 462.404 27.7727 465.889 25.5909C469.404 23.3788 473.161 22.2727 477.161 22.2727C478.101 22.2727 479.116 22.3182 480.207 22.4091C481.298 22.4697 482.237 22.5757 483.025 22.7272L480.48 37.8636C479.783 37.6212 478.692 37.4091 477.207 37.2272C475.752 37.0151 474.313 36.9091 472.889 36.9091C469.889 36.9091 467.101 37.5606 464.525 38.8636C461.98 40.1363 459.828 41.9091 458.07 44.1818C456.313 46.4545 455.177 49.0757 454.661 52.0454L447.889 93.0909H431.434ZM519.759 23.2727L517.623 36H477.532L479.623 23.2727H519.759ZM492.259 6.54543H508.714L497.805 72.0909C497.471 74.303 497.532 76 497.986 77.1818C498.471 78.3333 499.244 79.1212 500.305 79.5454C501.395 79.9697 502.623 80.1818 503.986 80.1818C504.986 80.1818 505.926 80.106 506.805 79.9545C507.683 79.7727 508.38 79.6363 508.895 79.5454L509.623 92.4091C508.623 92.7121 507.274 93.0454 505.577 93.4091C503.911 93.7727 501.911 93.9848 499.577 94.0454C495.395 94.1363 491.759 93.5 488.668 92.1363C485.608 90.7424 483.365 88.606 481.941 85.7272C480.547 82.8182 480.229 79.1818 480.986 74.8182L492.259 6.54543ZM539.061 94.4545C532.061 94.4545 526.273 93 521.698 90.0909C517.122 87.1515 513.91 83 512.061 77.6363C510.243 72.2424 509.94 65.8939 511.152 58.5909C512.334 51.4091 514.743 45.106 518.38 39.6818C522.016 34.2272 526.561 29.9848 532.016 26.9545C537.501 23.8939 543.561 22.3636 550.198 22.3636C554.501 22.3636 558.455 23.0606 562.061 24.4545C565.667 25.8182 568.713 27.9394 571.198 30.8182C573.683 33.6969 575.395 37.3636 576.334 41.8182C577.273 46.2424 577.228 51.5151 576.198 57.6363L575.425 62.6818H518.152L519.925 51.5909H561.38C561.925 48.4394 561.743 45.6363 560.834 43.1818C559.925 40.6969 558.41 38.7424 556.289 37.3182C554.167 35.8939 551.516 35.1818 548.334 35.1818C545.092 35.1818 542.061 36.0151 539.243 37.6818C536.455 39.3182 534.107 41.4394 532.198 44.0454C530.289 46.6515 529.076 49.3939 528.561 52.2727L526.698 62.9091C526.031 67.2727 526.183 70.8333 527.152 73.5909C528.122 76.3485 529.819 78.3788 532.243 79.6818C534.667 80.9848 537.728 81.6363 541.425 81.6363C543.849 81.6363 546.092 81.303 548.152 80.6363C550.213 79.9697 552.046 78.9697 553.652 77.6363C555.289 76.2727 556.652 74.606 557.743 72.6363L572.789 74.3636C571.122 78.4242 568.683 81.9697 565.47 85C562.258 88 558.41 90.3333 553.925 92C549.47 93.6363 544.516 94.4545 539.061 94.4545Z" fill="white"/>
</svg>
